<?xml version="1.0" encoding="UTF-8"?>
<svg id="_图层_2" data-name="图层 2" xmlns="http://www.w3.org/2000/svg" viewBox="0 0 131.18 31.31">
  <defs>
    <style>
      .cls-1 {
        fill: #b88b5e;
      }

      .cls-2 {
        fill: #36587a;
      }

      .cls-3 {
        fill: #c5252b;
      }
    </style>
  </defs>
  <g id="Layer_1" data-name="Layer 1">
    <path class="cls-1" d="M129.08,24.67h-25.37c-1.16,0-2.1-.94-2.1-2.1v-13.83c0-1.16.94-2.1,2.1-2.1h25.37c1.16,0,2.1.94,2.1,2.1v13.83c0,1.16-.94,2.1-2.1,2.1ZM103.72,6.9c-1.02,0-1.85.83-1.85,1.85v13.83c0,1.02.83,1.85,1.85,1.85h25.37c1.02,0,1.85-.83,1.85-1.85v-13.83c0-1.02-.83-1.85-1.85-1.85h-25.37Z"/>
    <g>
      <g>
        <path class="cls-2" d="M91.13,20.76c.82.98,2.32.98,3.14,0,1.38-3.33,2.76-6.67,4.15-10-.46-.72-1.32-1.08-2.16-.89-1.18,2.86-2.37,5.72-3.55,8.58-1.18-2.86-2.37-5.72-3.55-8.58-.84-.18-1.7.17-2.16.89,1.38,3.33,2.76,6.67,4.15,10Z"/>
        <path class="cls-2" d="M46.28,10.18v7.52c-2.34-2.51-4.67-5.01-7.01-7.52-.7-.49-1.63-.49-2.34,0v10.95c.7.49,1.63.49,2.34,0v-7.52c2.34,2.51,4.67,5.01,7.01,7.52.7.49,1.63.49,2.34,0v-10.95c-.7-.49-1.63-.49-2.34,0Z"/>
        <path class="cls-2" d="M63.8,21.13c.7.49,1.63.49,2.34,0v-1.97c.62-.62,1.23-1.23,1.85-1.85,1.4,1.4,2.79,2.79,4.19,4.19.84-.15,1.5-.81,1.65-1.65-1.4-1.4-2.79-2.79-4.19-4.19,1.4-1.4,2.79-2.79,4.19-4.19-.15-.84-.81-1.5-1.65-1.65-2.01,2.01-4.03,4.03-6.04,6.04v-5.67c-.7-.49-1.63-.49-2.34,0v10.95Z"/>
        <path class="cls-2" d="M80.61,21.49c-3.23,0-5.84-2.61-5.84-5.84s2.62-5.84,5.84-5.84,5.84,2.61,5.84,5.84-2.62,5.84-5.84,5.84ZM84.12,15.65c0-1.93-1.57-3.5-3.5-3.5s-3.5,1.57-3.5,3.5,1.57,3.5,3.5,3.5,3.5-1.57,3.5-3.5Z"/>
        <circle class="cls-3" cx="53.11" cy="12.56" r="2.04"/>
        <path class="cls-2" d="M52.77,16.34c.55,2.75,3.93,3.77,5.92,1.79,1.98-1.98.95-5.37-1.79-5.91-.09-.98-.43-1.7-1.14-2.39,5.41-.42,8.42,6.11,4.58,9.95-3.84,3.84-10.38.82-9.95-4.58.69.71,1.4,1.05,2.39,1.14Z"/>
      </g>
      <g>
        <circle class="cls-3" cx="15.66" cy="15.65" r="4.3" transform="translate(-.02 31.29) rotate(-89.91)"/>
        <path class="cls-3" d="M23.03,15.65c0,4.07-3.3,7.36-7.37,7.36s-7.37-3.3-7.37-7.36,3.3-7.36,7.37-7.36,7.37,3.3,7.37,7.36ZM31.32,2.47c-.32-1.21-1.26-2.15-2.47-2.47C21.44,6.96,9.88,6.96,2.47,0,1.26.32.32,1.26,0,2.47c6.97,7.41,6.97,18.96,0,26.37.32,1.21,1.26,2.15,2.47,2.47,7.41-6.96,18.96-6.96,26.38,0,1.21-.32,2.15-1.26,2.47-2.47-6.97-7.41-6.97-18.96,0-26.37Z"/>
      </g>
    </g>
    <g>
      <path class="cls-1" d="M103.91,9.41c.13-.08.26-.12.41-.12s.29.04.41.12l1.44,1.57,1.45-1.57c.13-.08.27-.12.42-.12s.29.04.42.12v5.55c-.13.08-.27.12-.42.12s-.29-.04-.42-.12v-4.34l-1.45,1.58-1.44-1.58v4.34c-.13.08-.26.12-.41.12s-.29-.04-.41-.12v-5.55Z"/>
      <path class="cls-1" d="M112.56,13.42c0,.23-.04.44-.12.64s-.2.38-.36.54-.33.27-.53.36-.41.12-.63.12-.44-.04-.64-.12c-.2-.08-.38-.2-.54-.36-.15-.16-.27-.34-.35-.54-.09-.2-.13-.41-.13-.64v-1.64c0-.22.04-.43.13-.64.08-.2.2-.38.35-.54.16-.15.34-.27.54-.36.2-.08.41-.13.64-.13s.43.04.63.13c.2.09.38.21.53.36.16.15.28.33.36.54s.12.42.12.64v1.64ZM111.74,11.78c0-.12-.02-.22-.07-.33-.04-.1-.1-.19-.18-.26-.07-.07-.16-.13-.26-.17-.1-.04-.2-.06-.31-.06s-.22.02-.33.06-.19.1-.26.17c-.07.08-.13.16-.18.26-.04.1-.07.21-.07.33v1.64c0,.12.02.22.07.32.04.1.1.19.18.26s.16.13.26.18c.1.04.21.07.33.07s.21-.02.31-.07c.1-.04.19-.1.26-.18.07-.07.13-.16.18-.26.04-.1.07-.21.07-.32v-1.64Z"/>
      <path class="cls-1" d="M114.06,10.13h.82c.08.13.12.26.12.41s-.04.28-.12.41h-.82v2.89c0,.11.04.21.12.29.08.08.18.12.29.12h.4c.08.13.12.26.12.41s-.04.29-.12.41h-.4c-.17,0-.33-.03-.48-.1-.15-.07-.28-.15-.39-.26s-.2-.24-.26-.39c-.07-.15-.1-.31-.1-.48v-4.84c.13-.08.26-.12.41-.12s.29.04.41.12v1.13Z"/>
      <path class="cls-1" d="M115.62,8.99c.13-.08.26-.12.41-.12s.29.04.41.12v.6c-.13.08-.26.12-.41.12s-.29-.04-.41-.12v-.6ZM116.45,14.96c-.13.08-.26.12-.41.12s-.29-.04-.41-.12v-4.73c.13-.08.26-.12.41-.12s.29.04.41.12v4.73Z"/>
      <path class="cls-1" d="M120.43,13.42c0,.23-.04.44-.12.64s-.2.38-.36.54-.33.27-.53.36-.41.12-.63.12-.44-.04-.64-.12c-.2-.08-.38-.2-.54-.36-.15-.16-.27-.34-.35-.54-.09-.2-.13-.41-.13-.64v-1.64c0-.22.04-.43.13-.64.08-.2.2-.38.35-.54.16-.15.34-.27.54-.36.2-.08.41-.13.64-.13s.43.04.63.13c.2.09.38.21.53.36.16.15.28.33.36.54s.12.42.12.64v1.64ZM119.6,11.78c0-.12-.02-.22-.07-.33-.04-.1-.1-.19-.18-.26-.07-.07-.16-.13-.26-.17-.1-.04-.2-.06-.31-.06s-.22.02-.33.06-.19.1-.26.17c-.07.08-.13.16-.18.26-.04.1-.07.21-.07.33v1.64c0,.12.02.22.07.32.04.1.1.19.18.26s.16.13.26.18c.1.04.21.07.33.07s.21-.02.31-.07c.1-.04.19-.1.26-.18.07-.07.13-.16.18-.26.04-.1.07-.21.07-.32v-1.64Z"/>
      <path class="cls-1" d="M124.37,14.95c-.13.07-.26.11-.41.11s-.29-.04-.41-.11v-3.18c0-.12-.02-.22-.06-.33-.04-.1-.1-.19-.17-.26s-.16-.13-.26-.17c-.1-.04-.21-.06-.32-.06s-.22.02-.32.06c-.1.04-.19.1-.26.17s-.13.16-.17.26c-.04.1-.06.21-.06.33v3.18c-.13.07-.26.11-.41.11s-.29-.04-.41-.11v-3.18c0-.23.04-.44.12-.64.08-.2.2-.38.35-.54.15-.15.33-.27.53-.36.2-.08.41-.12.63-.12s.43.04.63.12c.2.08.38.2.53.36.16.16.28.34.36.54.08.2.12.41.12.64v3.18Z"/>
      <path class="cls-1" d="M107.94,21.25c.07.13.11.26.11.41s-.04.29-.11.41h-1.96c-.28,0-.54-.05-.79-.16-.25-.1-.48-.25-.67-.45s-.34-.42-.45-.67c-.11-.25-.16-.52-.16-.79v-1.65c0-.28.05-.54.16-.79.1-.25.25-.48.45-.67.19-.19.42-.34.67-.45.25-.1.52-.16.79-.16h1.96c.07.13.11.26.11.41s-.04.29-.11.41h-1.96c-.17,0-.33.03-.48.1-.15.07-.28.15-.39.26s-.2.24-.26.39c-.07.15-.1.31-.1.48v1.65c0,.17.03.33.1.48.07.15.15.28.26.39s.24.2.39.26c.15.07.31.1.48.1h1.96Z"/>
      <path class="cls-1" d="M109.03,21.6c-.15-.16-.27-.34-.35-.54-.08-.2-.12-.41-.12-.63v-1.65c0-.22.04-.43.12-.63.08-.2.2-.38.35-.54.16-.15.34-.27.55-.36.2-.08.42-.12.64-.12s.42.04.63.12c.2.08.38.2.53.36.16.16.28.34.37.54.09.2.13.41.13.63v2.48c.08.13.12.26.12.41s-.04.29-.12.41h-1.65c-.22,0-.43-.04-.64-.12-.2-.08-.39-.2-.55-.36ZM110.21,17.95c-.12,0-.22.02-.33.07s-.19.1-.26.18c-.07.08-.13.16-.18.26-.04.1-.07.21-.07.32v1.65c0,.12.02.22.07.32.04.1.1.19.18.26s.16.13.26.18c.1.04.21.07.33.07h.82v-2.48c0-.23-.08-.43-.24-.59-.16-.16-.35-.24-.58-.24Z"/>
      <path class="cls-1" d="M115.43,17.58c.16.16.28.34.36.54.08.2.12.41.12.63v1.66c0,.23-.04.44-.12.64-.08.2-.2.38-.36.53-.15.16-.33.28-.53.37-.2.08-.41.13-.63.13h-.83v1.13c-.13.07-.26.11-.41.11s-.29-.04-.41-.11v-4.45c0-.22.04-.43.13-.63.08-.2.2-.38.35-.54.16-.15.34-.27.55-.35.2-.08.42-.13.64-.13s.43.04.63.13c.2.09.38.2.53.35ZM115.09,18.76c0-.11-.02-.21-.07-.31-.04-.1-.11-.19-.18-.26-.15-.17-.35-.25-.58-.25-.12,0-.22.02-.32.07-.1.04-.19.1-.26.18-.08.07-.14.16-.18.26-.04.1-.07.21-.07.32v2.49h.83c.23,0,.43-.08.59-.24s.24-.36.24-.59v-1.66Z"/>
      <path class="cls-1" d="M117.4,17.13h.82c.08.13.12.26.12.41s-.04.28-.12.41h-.82v2.89c0,.11.04.21.12.29.08.08.18.12.29.12h.4c.08.13.12.26.12.41s-.04.29-.12.41h-.4c-.17,0-.33-.03-.48-.1-.15-.07-.28-.15-.39-.26s-.2-.24-.26-.39c-.07-.15-.1-.31-.1-.48v-4.84c.13-.08.26-.12.41-.12s.29.04.41.12v1.13Z"/>
      <path class="cls-1" d="M118.97,17.23c.13-.08.26-.12.41-.12s.29.04.41.12v3.2c0,.23.08.43.24.59.16.16.36.24.59.24.12,0,.22-.02.33-.07.1-.04.19-.1.26-.18.07-.07.13-.16.18-.26.04-.1.07-.21.07-.32v-3.2c.13-.08.26-.12.41-.12s.28.04.41.12v3.2c0,.22-.04.43-.12.63s-.2.38-.36.53c-.15.16-.33.28-.53.36s-.41.12-.63.12-.43-.04-.63-.12c-.2-.08-.38-.2-.53-.36-.15-.15-.27-.33-.36-.53-.09-.2-.13-.41-.13-.63v-3.2Z"/>
      <path class="cls-1" d="M122.95,18.77c0-.23.04-.44.12-.64.08-.2.2-.38.36-.54.15-.16.33-.28.53-.36.2-.08.41-.12.64-.12.07.13.11.26.11.41s-.04.29-.11.41c-.12,0-.22.02-.33.07s-.19.1-.26.18c-.07.07-.13.16-.18.26-.04.1-.07.21-.07.33v3.2c-.13.07-.26.11-.41.11s-.29-.04-.41-.11v-3.2Z"/>
      <path class="cls-1" d="M128.51,19.23c-.41.21-.82.42-1.23.62-.41.2-.82.41-1.23.62,0,.1.03.19.07.28.04.09.09.16.16.23.07.07.14.13.23.17s.18.08.28.09c.2.02.38-.03.55-.14.17-.12.28-.27.33-.46.14-.04.28-.05.42,0,.14.04.26.11.37.22-.06.2-.14.38-.26.54-.12.16-.25.29-.42.4-.16.11-.34.18-.53.23-.19.05-.39.06-.6.03-.2-.03-.39-.09-.57-.19-.17-.1-.32-.22-.45-.36-.13-.14-.23-.31-.3-.5-.07-.19-.11-.38-.11-.59v-1.65c0-.22.04-.43.13-.63.08-.2.2-.38.35-.53.16-.15.34-.27.54-.36.2-.08.41-.13.63-.13s.43.04.63.13c.2.09.38.21.52.36.16.15.28.33.36.53s.12.41.12.63v.46ZM126.05,19.55l1.64-.83c0-.11-.03-.21-.08-.31-.05-.09-.11-.17-.18-.24-.07-.07-.16-.12-.26-.16-.1-.04-.2-.06-.31-.06-.11,0-.21.03-.31.08-.1.04-.18.1-.26.18-.07.08-.13.16-.17.26-.04.1-.06.2-.06.31v.78Z"/>
    </g>
  </g>
</svg>